<svg xmlns="http://www.w3.org/2000/svg" viewBox="0 0 20.32 18.19"><defs><style>.cls-1{fill:#b2b2b2;}</style></defs><title>favorite_inactive</title><g id="Layer_2" data-name="Layer 2"><g id="Design"><path class="cls-1" d="M16.54,9v2.21h2.22v1.57H16.54V15H15V12.75H12.77V11.18H15V9h1.56m0-1.56H15A1.56,1.56,0,0,0,13.42,9v.65h-.65a1.56,1.56,0,0,0-1.57,1.56v1.57a1.56,1.56,0,0,0,1.57,1.56h.65V15A1.56,1.56,0,0,0,15,16.52h1.56A1.56,1.56,0,0,0,18.11,15v-.65h.65a1.56,1.56,0,0,0,1.56-1.56V11.18a1.56,1.56,0,0,0-1.56-1.56h-.65V9a1.56,1.56,0,0,0-1.57-1.56Z"/><path class="cls-1" d="M16,15.79,13.81,15l.2,1.19L9.42,13.75l-4.61,2.4L5.71,11,2,7.38l5.15-.73L9.47,2l2.28,4.67,5.15.77-.7.82,1.65,1.05.44-.43a2,2,0,0,0,.51-2.05,2,2,0,0,0-1.61-1.36l-4.1-.62L11.27,1.12A2,2,0,0,0,9.48,0h0A2,2,0,0,0,7.68,1.11L5.83,4.82,1.72,5.4A2,2,0,0,0,.6,8.81l3,2.9L2.84,15.8a2,2,0,0,0,2.89,2.12L9.41,16,13.07,18a2,2,0,0,0,.94.24,2,2,0,0,0,2-2.33Z"/></g></g></svg>