<svg xmlns="http://www.w3.org/2000/svg" width="19.6123" height="18.47949" viewBox="0 0 19.6123 18.47949">
  <title>clone_filesystem</title>
  <g>
    <path d="M16.86133,3.70459H6.57227a2.75322,2.75322,0,0,0-2.75,2.75049v9.27344a2.75332,2.75332,0,0,0,2.75,2.751H16.86133a2.75415,2.75415,0,0,0,2.751-2.751V6.45508A2.75405,2.75405,0,0,0,16.86133,3.70459Zm.68457,12.02393a.68507.68507,0,0,1-.68457.68457H6.57227a.68528.68528,0,0,1-.68408-.68457V6.45508A.68487.68487,0,0,1,6.57227,5.771H16.86133a.68466.68466,0,0,1,.68457.68408Z" fill="gray"/>
    <path d="M16.84619,1.0332A1.03329,1.03329,0,0,0,15.813,0H3.48047A3.48466,3.48466,0,0,0,0,3.48047V14.71973a1.0332,1.0332,0,1,0,2.06641,0V3.48047A1.41558,1.41558,0,0,1,3.48047,2.06641H15.813A1.03329,1.03329,0,0,0,16.84619,1.0332Z" fill="gray"/>
  </g>
</svg>
