<svg xmlns="http://www.w3.org/2000/svg" width="20.70898" height="19.7085" viewBox="0 0 20.70898 19.7085">
  <title>download_filesystem</title>
  <g>
    <path d="M19.209,10.979a1.50007,1.50007,0,0,0-1.5,1.5V16.7085H3V12.479a1.5,1.5,0,0,0-3,0V19.7085H20.709V12.479A1.50039,1.50039,0,0,0,19.209,10.979Z" fill="gray"/>
    <path d="M10.12158,13.88818A.36153.36153,0,0,0,10.38818,14a.34753.34753,0,0,0,.25439-.11182L14.5249,9.60254a.361.361,0,0,0,.05518-.39062A.32.32,0,0,0,14.25928,9H11.854V1.5a1.5,1.5,0,0,0-3,0V9H6.44971a.33367.33367,0,0,0-.32129.21191.36206.36206,0,0,0,.05566.39063Z" fill="gray"/>
  </g>
</svg>
