<svg xmlns="http://www.w3.org/2000/svg" width="17.0371" height="17.143" viewBox="0 0 17.0371 17.143">
  <title>Refresh_filesystem</title>
  <path d="M17.0371,1.4287v5a.68818.68818,0,0,1-.211.5024.68067.68067,0,0,1-.499.2119H11.3584a.66258.66258,0,0,1-.6543-.4462.63738.63738,0,0,1,.1552-.7706l1.5303-1.54A5.63805,5.63805,0,0,0,6.3164,3.3091,5.638,5.638,0,0,0,3.289,6.3559a5.6874,5.6874,0,0,0,0,4.4307,5.63426,5.63426,0,0,0,3.0274,3.0469,5.49777,5.49777,0,0,0,2.2021.4521A5.60764,5.60764,0,0,0,13,12.0649a.34417.34417,0,0,1,.2549-.1338.39915.39915,0,0,1,.2773.1001l1.5195,1.5406a.31185.31185,0,0,1,.1055.2285.36954.36954,0,0,1-.083.2509,8.33118,8.33118,0,0,1-2.9287,2.2823,8.41674,8.41674,0,0,1-3.627.8095,8.258,8.258,0,0,1-3.3056-.6806,8.58857,8.58857,0,0,1-2.7168-1.8306A8.64657,8.64657,0,0,1,.6767,11.8974a8.51155,8.51155,0,0,1,0-6.6518A8.65221,8.65221,0,0,1,2.4961,2.5112,8.57072,8.57072,0,0,1,5.2129.6811,8.35326,8.35326,0,0,1,11.6738.6196a8.60517,8.60517,0,0,1,2.7119,1.7466l1.4424-1.44A.63817.63817,0,0,1,16.6045.77.66845.66845,0,0,1,17.0371,1.4287Z" fill="gray"/>
</svg>
