<svg xmlns="http://www.w3.org/2000/svg" width="18.457" height="18.5713" viewBox="0 0 18.457 18.5713">
  <title>Search_filesystem</title>
  <path d="M18.457,17.1426a1.37863,1.37863,0,0,1-.4218,1.0049,1.36172,1.36172,0,0,1-.9981.4238,1.31422,1.31422,0,0,1-.998-.4238l-3.8047-3.8174a7.563,7.563,0,0,1-4.4258,1.3838,7.62592,7.62592,0,0,1-3.0332-.6192,7.80251,7.80251,0,0,1-2.4961-1.6738A7.883,7.883,0,0,1,.6152,10.9092a7.87931,7.87931,0,0,1,0-6.1045A7.8807,7.8807,0,0,1,2.2793,2.2935,7.80216,7.80216,0,0,1,4.7754.6192a7.74123,7.74123,0,0,1,6.0674,0,7.87056,7.87056,0,0,1,4.7744,7.2377,7.6736,7.6736,0,0,1-1.375,4.4532l3.8047,3.8281A1.371,1.371,0,0,1,18.457,17.1426Zm-7.1377-5.7529a4.8299,4.8299,0,0,0,1.458-3.5328,4.82775,4.82775,0,0,0-1.458-3.5322A4.77112,4.77112,0,0,0,7.8086,2.8569,4.77112,4.77112,0,0,0,4.2979,4.3247,4.82784,4.82784,0,0,0,2.8398,7.8569a4.83,4.83,0,0,0,1.4581,3.5328,4.77055,4.77055,0,0,0,3.5107,1.4672A4.77055,4.77055,0,0,0,11.3193,11.3897Z" fill="gray"/>
</svg>
