<svg xmlns="http://www.w3.org/2000/svg" width="17.0371" height="17.143" viewBox="0 0 17.0371 17.143">
  <title>settings_filesystem</title>
  <path d="M17.0371,7.355V9.8325a.42961.42961,0,0,1-.0889.2568.336.336,0,0,1-.2217.1451l-2.0517.3125a7.2223,7.2223,0,0,1-.4326,1.0156q.3882.55875,1.1865,1.5405a.43081.43081,0,0,1,.1113.2788.3698.3698,0,0,1-.1006.2564,11.22189,11.22189,0,0,1-1.0976,1.2055q-.7983.7932-1.043.7925a.5348.5348,0,0,1-.2881-.1006l-1.5302-1.2051a6.34317,6.34317,0,0,1-1.0098.4239,18.47306,18.47306,0,0,1-.3213,2.0761.37453.37453,0,0,1-.3994.3125H7.2871a.41988.41988,0,0,1-.2715-.0947.33241.33241,0,0,1-.1279-.2402l-.3106-2.0537a6.87621,6.87621,0,0,1-.998-.4131L4.0156,15.5356a.39722.39722,0,0,1-.2773.1006.38064.38064,0,0,1-.2774-.123,14.607,14.607,0,0,1-1.8301-1.875.43812.43812,0,0,1-.0781-.2564.42983.42983,0,0,1,.0889-.2568q.16695-.23445.5654-.7422.3999-.5076.5996-.7866a5.51536,5.51536,0,0,1-.4551-1.105L.3213,10.1899a.34671.34671,0,0,1-.2324-.1396A.42146.42146,0,0,1,0,9.7881V7.31a.42842.42842,0,0,1,.0889-.2563.33062.33062,0,0,1,.2109-.145l2.0625-.3125a5.54934,5.54934,0,0,1,.4326-1.0269q-.44385-.63645-1.1865-1.5405a.41841.41841,0,0,1-.1113-.2676.46849.46849,0,0,1,.1005-.2568A10.98371,10.98371,0,0,1,2.6894,2.3047q.8043-.7977,1.0489-.7979a.47353.47353,0,0,1,.2881.1118L5.5566,2.8125a6.37829,6.37829,0,0,1,1.0098-.4243A18.4774,18.4774,0,0,1,6.8877.3125.37405.37405,0,0,1,7.2871,0H9.75a.41489.41489,0,0,1,.2715.0952.33066.33066,0,0,1,.1279.2397l.3105,2.0533a6.86168,6.86168,0,0,1,.9981.413l1.5752-1.1943a.35985.35985,0,0,1,.2656-.1001.42806.42806,0,0,1,.2774.1118,15.16,15.16,0,0,1,1.83,1.897.36316.36316,0,0,1,.0782.2456.42961.42961,0,0,1-.0889.2568q-.16695.23445-.5654.7422-.3999.50835-.5996.7867a6.71642,6.71642,0,0,1,.455,1.0937l2.0303.3125a.35086.35086,0,0,1,.2324.1396A.42154.42154,0,0,1,17.0371,7.355Zm-6.5107,3.2363a2.7597,2.7597,0,0,0,.832-2.0195,2.76217,2.76217,0,0,0-.832-2.0206,2.827,2.827,0,0,0-4.0157,0,2.76178,2.76178,0,0,0-.832,2.0206,2.75931,2.75931,0,0,0,.832,2.0195,2.82583,2.82583,0,0,0,4.0157,0Z" fill="gray"/>
</svg>
