<svg xmlns="http://www.w3.org/2000/svg" width="17.03711" height="18.57129" viewBox="0 0 17.03711 18.57129">
  <title>shutdown_filesystem</title>
  <g>
    <path d="M8.51855,10a1.36012,1.36012,0,0,0,.998-.42432,1.37657,1.37657,0,0,0,.42188-1.00439V1.42822A1.37736,1.37736,0,0,0,9.5166.42383a1.387,1.387,0,0,0-1.99609,0,1.37736,1.37736,0,0,0-.42187,1.00439V8.57129a1.37657,1.37657,0,0,0,.42188,1.00439A1.35855,1.35855,0,0,0,8.51855,10Z" fill="gray"/>
    <path d="M16.14453,6.17188a8.3937,8.3937,0,0,0-2.5127-3.01367,1.37187,1.37187,0,0,0-1.05371-.2793,1.31589,1.31589,0,0,0-.93164.55859A1.36471,1.36471,0,0,0,11.375,4.49219a1.38716,1.38716,0,0,0,.54883.94287A5.68505,5.68505,0,0,1,14.19727,10a5.58869,5.58869,0,0,1-.44922,2.21484,5.634,5.634,0,0,1-3.02734,3.04688,5.58876,5.58876,0,0,1-4.4043,0,5.634,5.634,0,0,1-3.02734-3.04687,5.72461,5.72461,0,0,1,.14355-4.75977,5.68959,5.68959,0,0,1,1.68066-2.02,1.38716,1.38716,0,0,0,.54883-.94287A1.36471,1.36471,0,0,0,5.39063,3.4375a1.312,1.312,0,0,0-.92578-.55859,1.39621,1.39621,0,0,0-1.05957.2793A8.3937,8.3937,0,0,0,.89258,6.17188,8.4928,8.4928,0,0,0,0,10a8.38184,8.38184,0,0,0,.67676,3.32568,8.648,8.648,0,0,0,1.81934,2.73438,8.5887,8.5887,0,0,0,2.7168,1.83057,8.36736,8.36736,0,0,0,6.61133,0,8.44751,8.44751,0,0,0,4.53613-4.56494A8.38184,8.38184,0,0,0,17.03711,10,8.4928,8.4928,0,0,0,16.14453,6.17188Z" fill="gray"/>
  </g>
</svg>
