<svg xmlns="http://www.w3.org/2000/svg" width="18.61816" height="19.36768" viewBox="0 0 18.61816 19.36768">
  <title>terminal_filesystem</title>
  <g>
    <path d="M4.28516,6.092a.211.211,0,0,0-.31006,0l-.33643.33862a.21507.21507,0,0,0,0,.31177L6.28418,9.40381,3.63867,12.06567a.21451.21451,0,0,0,0,.31128l.33643.33911a.21151.21151,0,0,0,.31006,0L7.42139,9.55981a.214.214,0,0,0,0-.31177Z" fill="gray"/>
    <path d="M14.46875,12.438H8.00732a.21046.21046,0,0,0-.15527.061.213.213,0,0,0-.06006.156v.43335a.2128.2128,0,0,0,.06006.15576.20952.20952,0,0,0,.15527.061h6.46143a.20813.20813,0,0,0,.21582-.2168V12.655a.20814.20814,0,0,0-.21582-.217Z" fill="gray"/>
    <path d="M15.90039,0H2.71777A2.72029,2.72029,0,0,0,0,2.71777V16.6499a2.72029,2.72029,0,0,0,2.71777,2.71777H15.90039a2.7206,2.7206,0,0,0,2.71777-2.71777V2.71777A2.7206,2.7206,0,0,0,15.90039,0Zm.71777,16.6499a.71862.71862,0,0,1-.71777.71777H2.71777A.71862.71862,0,0,1,2,16.6499V2.71777A.71862.71862,0,0,1,2.71777,2H15.90039a.71862.71862,0,0,1,.71777.71777Z" fill="gray"/>
  </g>
</svg>
