<svg xmlns="http://www.w3.org/2000/svg" width="20.70801" height="21.06543" viewBox="0 0 20.70801 21.06543">
  <title>upload_filesystem</title>
  <g>
    <path d="M19.208,12.33643a1.50039,1.50039,0,0,0-1.5,1.5v4.229H3v-4.229a1.5,1.5,0,0,0-3,0v7.229H20.708v-7.229A1.49976,1.49976,0,0,0,19.208,12.33643Z" fill="gray"/>
    <path d="M6.44922,5H8.85449v8.85718a1.5,1.5,0,0,0,3,0V5h2.4043a.33367.33367,0,0,0,.32129-.21191.36254.36254,0,0,0-.05566-.39087L10.58691.11182A.36231.36231,0,0,0,10.32031,0a.34937.34937,0,0,0-.25488.11182L6.18359,4.39722a.36254.36254,0,0,0-.05566.39087A.321.321,0,0,0,6.44922,5Z" fill="gray"/>
  </g>
</svg>
