<svg id="Layer_1" data-name="Layer 1" xmlns="http://www.w3.org/2000/svg" viewBox="0 0 98.7 90.3"><defs><style>.cls-1{fill:#ffffff;}</style></defs><path class="cls-1" d="M86.9,53.9a2.8,2.8,0,0,0-4.1,0,2.8,2.8,0,0,0,0,4l5.9,5.9a2.9,2.9,0,0,0,4,0,2.8,2.8,0,0,0,0-4.1Z"/><path class="cls-1" d="M84.9,29.9a2.6,2.6,0,0,0,2-.8l5.8-5.8a2.8,2.8,0,0,0,0-4.1,2.7,2.7,0,0,0-4,0L82.8,25a3,3,0,0,0,0,4.1,2.8,2.8,0,0,0,2.1.8Z"/><path class="cls-1" d="M95.8,38.6H87.5a2.9,2.9,0,0,0,0,5.8h8.3a2.9,2.9,0,1,0,0-5.8Z"/><path class="cls-1" d="M76.9.4A3,3,0,0,0,74,.4L40.9,20.7H26.2a11,11,0,0,0-8.4,3.1,9,9,0,0,0-2.1,2.7H8.4A8.5,8.5,0,0,0,0,34.9V48a8.4,8.4,0,0,0,8.4,8.4h7.2a13.6,13.6,0,0,0,5.1,5L10.6,78.8a2.9,2.9,0,0,0-.3,2.2,2.8,2.8,0,0,0,1.4,1.8l12.8,7.1a2.3,2.3,0,0,0,1.4.4,3,3,0,0,0,2.5-1.4l14.4-25L74,82.5a2.8,2.8,0,0,0,1.5.4,3.2,3.2,0,0,0,1.4-.3,3.1,3.1,0,0,0,1.5-2.5V2.9A2.8,2.8,0,0,0,76.9.4ZM8.4,50.6A2.5,2.5,0,0,1,5.8,48V34.9a2.6,2.6,0,0,1,2.6-2.6h5.7V50.5H8.4ZM19.9,32.4A6,6,0,0,1,21.8,28,5.3,5.3,0,0,1,26,26.5H38.8V57.1H26.2a6.7,6.7,0,0,1-6.3-6.6Zm4.9,51.1-7.7-4.3,9.2-16,.2-.3H36.7ZM72.6,75l-28-16.7V25.2L72.6,8Z"/></svg>
