<svg id="Layer_1" data-name="Layer 1" xmlns="http://www.w3.org/2000/svg" viewBox="0 0 75.09 90.22"><defs><style>.cls-1{fill:#c9e9fc;}</style></defs><title>News</title><path id="Path_1772" data-name="Path 1772" class="cls-1" d="M39.39.16A11.28,11.28,0,0,0,26.23,11.29v2.56a26.31,26.31,0,0,0-15,23.76v8.7a7.51,7.51,0,0,1-1.88,5.06l-6.8,7.52a9.77,9.77,0,0,0,7.2,16.31H22.47a15,15,0,0,0,30.07,0H65.3a9.77,9.77,0,0,0,7.25-16.33l-6.8-7.52a7.51,7.51,0,0,1-1.88-5.06V38.54a27.4,27.4,0,0,0-15-24.6V11.68A11.6,11.6,0,0,0,39.39.16ZM37.51,82.7A7.52,7.52,0,0,1,30,75.19H45A7.52,7.52,0,0,1,37.51,82.7ZM56.3,38.54V46.3a15,15,0,0,0,3.89,10.09L67,63.91a2.26,2.26,0,0,1-1.67,3.76H9.71A2.25,2.25,0,0,1,8,63.91l6.78-7.52A15,15,0,0,0,18.71,46.3V37.6A18.79,18.79,0,0,1,31.25,19.9a3.76,3.76,0,0,0,2.5-3.53V11.29a3.76,3.76,0,0,1,1.33-2.86,3.58,3.58,0,0,1,2.42-.9,3.84,3.84,0,0,1,.66,0,4.06,4.06,0,0,1,3.1,4.15V16.4a3.76,3.76,0,0,0,2.44,3.51A20,20,0,0,1,56.3,38.54Z"/></svg>