<svg id="Layer_1" data-name="Layer 1" xmlns="http://www.w3.org/2000/svg" viewBox="0 0 90.3 90.3"><defs><style>.cls-1{fill:#ffffff;}</style></defs><path class="cls-1" d="M18.2,33.6a11.3,11.3,0,0,0,5.9,1.5,11.7,11.7,0,0,0,6.6-1.9,8.8,8.8,0,0,0,2.4-2.7,2.1,2.1,0,0,0-1.2-3.3h0a2.4,2.4,0,0,0-2.5,1A4.7,4.7,0,0,1,28,29.9a6.1,6.1,0,0,1-3.9,1.2,6.9,6.9,0,0,1-3.6-1,5.4,5.4,0,0,1-2.2-2.7,12.4,12.4,0,0,1,0-8.2,5.4,5.4,0,0,1,2.2-2.7,6.1,6.1,0,0,1,3.6-1A6.1,6.1,0,0,1,28,16.7a4.7,4.7,0,0,1,1.4,1.7,2.4,2.4,0,0,0,2.5,1A2.2,2.2,0,0,0,33.1,16a9.8,9.8,0,0,0-2.4-2.6,10.9,10.9,0,0,0-6.6-1.9A11.3,11.3,0,0,0,18.2,13a10,10,0,0,0-3.8,4.1,14.9,14.9,0,0,0-1.3,6.2,15.2,15.2,0,0,0,1.3,6.2A10.7,10.7,0,0,0,18.2,33.6Z"/><path class="cls-1" d="M77.2,0h-64A13.2,13.2,0,0,0,0,13.2V77.1A13.2,13.2,0,0,0,13.2,90.3H77.1A13.2,13.2,0,0,0,90.3,77.1v-64A13.1,13.1,0,0,0,77.2,0Zm5.6,77.3a5.5,5.5,0,0,1-5.5,5.5H13a5.5,5.5,0,0,1-5.5-5.5V13A5.5,5.5,0,0,1,13,7.5H77.3A5.5,5.5,0,0,1,82.8,13Z"/><path class="cls-1" d="M74.1,13.3H42A3.6,3.6,0,0,0,38.3,17,3.7,3.7,0,0,0,42,20.8H74.1A3.8,3.8,0,0,0,77.9,17,3.7,3.7,0,0,0,74.1,13.3Z"/><path class="cls-1" d="M74.1,27.4H42a3.8,3.8,0,0,0,0,7.5H74.1a3.8,3.8,0,1,0,0-7.5Z"/><path class="cls-1" d="M74.1,41.5H17A3.8,3.8,0,0,0,17,49H74.1a3.8,3.8,0,1,0,0-7.5Z"/><path class="cls-1" d="M74.1,55.7H17a3.6,3.6,0,0,0-3.7,3.7A3.7,3.7,0,0,0,17,63.2H74.1a3.8,3.8,0,0,0,3.8-3.8A3.7,3.7,0,0,0,74.1,55.7Z"/><path class="cls-1" d="M74.1,69.8H17a3.8,3.8,0,0,0,0,7.5H74.1a3.8,3.8,0,1,0,0-7.5Z"/></svg>
