<svg id="Layer_1" data-name="Layer 1" xmlns="http://www.w3.org/2000/svg" viewBox="0 0 68.26 90.22"><defs><style>.cls-1{fill:#ffffff;}</style></defs><title>Dialogue-Forum</title><path class="cls-1" d="M67.23,0H1.15a12.07,12.07,0,0,0-12,12.11V65a12.07,12.07,0,0,0,12,12.11H21.25L33,89.6a1.6,1.6,0,0,0,2.33,0L47,77.11H67.23A12.07,12.07,0,0,0,79.25,65V12.11A12.07,12.07,0,0,0,67.23,0Zm4.32,65a4.37,4.37,0,0,1-4.32,4.41H43.66l-2.28,2.45-7.21,7.73-7.31-7.75-2.28-2.42H1.15A4.37,4.37,0,0,1-3.17,65V12.11A4.37,4.37,0,0,1,1.15,7.7H67.23a4.37,4.37,0,0,1,4.32,4.41Z"/><path class="cls-1" d="M57.94,16.81H10.44a3.85,3.85,0,0,0,0,7.7H57.94a3.85,3.85,0,0,0,0-7.7Z"/><path class="cls-1" d="M57.94,34.39H10.44a3.85,3.85,0,0,0,0,7.7H57.94a3.85,3.85,0,0,0,0-7.7Z"/><path class="cls-1" d="M57.94,52H10.44a3.85,3.85,0,0,0,0,7.7H57.94a3.85,3.85,0,1,0,0-7.7Z"/></svg>
