<?xml version="1.0" encoding="utf-8"?>
<!-- Generator: Adobe Illustrator 25.0.1, SVG Export Plug-In . SVG Version: 6.00 Build 0)  -->
<svg version="1.1" id="Layer_1" xmlns="http://www.w3.org/2000/svg" xmlns:xlink="http://www.w3.org/1999/xlink" x="0px" y="0px"
	 viewBox="0 0 90.2 90.2" style="enable-background:new 0 0 90.2 90.2;" xml:space="preserve">
<style type="text/css">
	.st0{fill:#FFFFFF;}
</style>
<g>
	<path class="st0" d="M78.2,0H12.1c-6.7,0-12,5.5-12,12.1V65c0,6.7,5.3,12.1,12,12.1h20.1L44,89.6c0.6,0.6,1.6,0.7,2.3,0.1
		c0,0,0,0,0.1-0.1L58,77.1h20.2c6.7,0,12-5.4,12-12.1V12.1C90.3,5.4,84.9,0,78.2,0z M82.5,65c0,2.4-1.9,4.4-4.3,4.4H54.7l-2.3,2.5
		l-7.2,7.7l-7.3-7.8l-2.3-2.4H12.1c-2.4,0-4.3-2-4.3-4.4c0,0,0,0,0,0V12.1c0-2.4,1.9-4.4,4.3-4.4h66.1c2.4,0,4.3,2,4.3,4.4V65z"/>
	<path class="st0" d="M68.9,16.8H21.4c-2.1,0-3.8,1.7-3.8,3.9c0,2.1,1.7,3.8,3.8,3.8h47.5c2.1,0,3.8-1.7,3.8-3.8
		S71.1,16.8,68.9,16.8z"/>
	<path class="st0" d="M68.9,34.4H21.4c-2.1,0-3.8,1.7-3.8,3.9c0,2.1,1.7,3.8,3.8,3.8h47.5c2.1,0,3.8-1.7,3.8-3.8
		C72.8,36.1,71.1,34.4,68.9,34.4z"/>
	<path class="st0" d="M68.9,52H21.4c-2.1,0-3.8,1.7-3.8,3.9s1.7,3.8,3.8,3.8h47.5c2.1,0,3.8-1.7,3.8-3.8S71.1,52,68.9,52z"/>
</g>
</svg>
