<svg id="Layer_1" data-name="Layer 1" xmlns="http://www.w3.org/2000/svg" viewBox="0 0 98.38 97.09"><defs><style>.cls-1{fill:#ffffff;}</style></defs><title>Events</title><g id="Group_530" data-name="Group 530"><path id="Path_1602" data-name="Path 1602" class="cls-1" d="M0,19.42V77.67A19.39,19.39,0,0,0,19.36,97.09H79A19.39,19.39,0,0,0,98.38,77.72s0,0,0-.05V19.42A19.39,19.39,0,0,0,79,0H19.42A19.39,19.39,0,0,0,0,19.36S0,19.4,0,19.42Zm79,69.9H19.42A11.6,11.6,0,0,1,7.77,77.77s0-.07,0-.1V42.07H90.61v35.6A11.6,11.6,0,0,1,79.07,89.32H79ZM19.42,7.77H79A11.6,11.6,0,0,1,90.61,19.32s0,.07,0,.1V34.3H7.77V19.42A11.6,11.6,0,0,1,19.32,7.77Z"/><circle id="Ellipse_1" data-name="Ellipse 1" class="cls-1" cx="28.94" cy="21.53" r="6"/><circle id="Ellipse_2" data-name="Ellipse 2" class="cls-1" cx="69.43" cy="21.53" r="6"/></g></svg>
