<svg xmlns="http://www.w3.org/2000/svg" width="24" height="24" viewBox="0 0 24 24">
  <g id="Group_389" data-name="Group 389" transform="translate(-12.581 -12.585)">
    <path id="Path_1668" data-name="Path 1668" d="M19.287,54.908a6.661,6.661,0,0,0,4.74-1.963l3.528-3.528A1.284,1.284,0,0,0,25.739,47.6L22.212,51.13a4.14,4.14,0,0,1-6.021-5.685c.054-.057.11-.114.168-.168l3.528-3.528a1.284,1.284,0,0,0-1.815-1.815l-3.528,3.528a6.706,6.706,0,0,0,4.743,11.446Z" transform="translate(0 -18.323)" fill="#971035"/>
    <path id="Path_1669" data-name="Path 1669" d="M52.945,14.546a6.712,6.712,0,0,0-9.483,0l-3.528,3.528a1.284,1.284,0,1,0,1.815,1.815l3.528-3.528a4.14,4.14,0,0,1,5.853,5.853L47.6,25.742a1.284,1.284,0,0,0,1.815,1.815l3.528-3.528A6.712,6.712,0,0,0,52.945,14.546Z" transform="translate(-18.325)" fill="#971035"/>
    <path id="Path_1670" data-name="Path 1670" d="M44.223,35.313a1.283,1.283,0,0,0-1.814,0h0l-7.094,7.094a1.284,1.284,0,0,0,1.815,1.815h0l7.094-7.094a1.283,1.283,0,0,0,0-1.814Z" transform="translate(-15.187 -15.184)" fill="#971035"/>
  </g>
</svg>
