<svg xmlns="http://www.w3.org/2000/svg" width="24" height="24"><g data-name="Group 389" fill="#971035"><path data-name="Path 1668" d="M6.706 24a6.661 6.661 0 004.74-1.963l3.528-3.528a1.284 1.284 0 00-1.816-1.817l-3.527 3.53a4.14 4.14 0 01-6.021-5.685c.054-.057.11-.114.168-.168l3.528-3.528a1.284 1.284 0 00-1.815-1.815l-3.528 3.528A6.706 6.706 0 006.706 24z"/><path data-name="Path 1669" d="M22.039 1.961a6.712 6.712 0 00-9.483 0L9.028 5.489a1.284 1.284 0 101.815 1.815l3.528-3.528a4.14 4.14 0 015.853 5.853l-3.53 3.528a1.284 1.284 0 001.815 1.815l3.528-3.528a6.712 6.712 0 00.002-9.483z"/><path data-name="Path 1670" d="M16.455 7.544a1.283 1.283 0 00-1.814 0l-7.094 7.094a1.284 1.284 0 001.815 1.815l7.094-7.094a1.283 1.283 0 000-1.814z"/></g></svg>