<?xml version="1.0" encoding="utf-8"?>
<!-- Generator: Adobe Illustrator 25.0.1, SVG Export Plug-In . SVG Version: 6.00 Build 0)  -->
<svg version="1.1" id="Layer_1" xmlns="http://www.w3.org/2000/svg" xmlns:xlink="http://www.w3.org/1999/xlink" x="0px" y="0px"
	 viewBox="0 0 90.2 90.2" style="enable-background:new 0 0 90.2 90.2;" xml:space="preserve">
<style type="text/css">
	.st0{fill:#FFFFFF;}
</style>
<path class="st0" d="M88.7,31l-17.3-8V8.6c0-4.7-3.9-8.6-8.6-8.6c0,0,0,0,0,0H27.5c-4.7,0-8.6,3.9-8.6,8.6v14.5l-17.2,8
	c-1,0.4-1.6,1.4-1.6,2.5v51.1c0,3,2.5,5.4,5.5,5.4h79.2c3,0,5.5-2.4,5.5-5.5l0,0V33.5C90.3,32.5,89.6,31.5,88.7,31z M71.3,31.5
	l6.9,3.2l-6.9,4.2L71.3,31.5z M26.8,27.9V8.6c0-0.4,0.3-0.8,0.8-0.8l0,0h35.2c0.4,0,0.8,0.3,0.8,0.8v35.2L45.1,55.1L26.8,43.8V27.9z
	 M18.9,31.5v7.4l-6.8-4.2L18.9,31.5z M82.5,82.4H7.8V41.1L18.9,48l7.9,4.8l10.9,6.8l3.9,2.4c2.1,1.3,4.9,1.3,7,0l4-2.4l10.9-6.7
	l7.8-4.8l11.2-6.9V82.4z"/>
<path class="st0" d="M34.3,19.4H56c2.1,0,3.8-1.7,3.8-3.9c0-2.1-1.7-3.8-3.8-3.8H34.3c-2.1,0-3.8,1.7-3.8,3.9
	C30.4,17.6,32.1,19.3,34.3,19.4z"/>
<path class="st0" d="M59.8,27.6c0-2.1-1.7-3.8-3.8-3.9H34.3c-2.1,0-3.8,1.7-3.8,3.9s1.7,3.9,3.8,3.9H56
	C58.1,31.5,59.8,29.7,59.8,27.6z"/>
</svg>
