<svg id="Layer_1" data-name="Layer 1" xmlns="http://www.w3.org/2000/svg" viewBox="0 0 68.26 90.22"><defs><style>.cls-1{fill:#ffffff;}</style></defs><title>Newsletters</title><path class="cls-1" d="M77.66,31,60.34,23V8.6A8.6,8.6,0,0,0,51.73,0H16.52a8.6,8.6,0,0,0-8.6,8.6V23.07l-17.2,8a2.74,2.74,0,0,0-1.59,2.49v51.1A5.47,5.47,0,0,0-5.4,90.1H73.78a5.47,5.47,0,0,0,5.47-5.47V33.54A2.74,2.74,0,0,0,77.66,31Zm-17.33.45,6.88,3.19-6.88,4.24ZM15.77,27.91V8.6a.76.76,0,0,1,.76-.76H51.73a.76.76,0,0,1,.76.76V43.77L34.13,55.1,15.77,43.75ZM7.92,31.55V38.9L1.13,34.7ZM71.55,82.4H-3.17V41.1L7.92,48l7.85,4.85,10.93,6.75L30.63,62a6.61,6.61,0,0,0,7,0l4-2.44,10.92-6.74L60.34,48l11.21-6.92Z"/><path class="cls-1" d="M23.28,19.35H45a3.85,3.85,0,0,0,0-7.7H23.28a3.85,3.85,0,0,0,0,7.7Z"/><path class="cls-1" d="M48.83,27.63A3.85,3.85,0,0,0,45,23.77H23.28a3.85,3.85,0,0,0,0,7.7H45A3.85,3.85,0,0,0,48.83,27.63Z"/></svg>
