<svg id="Layer_1" data-name="Layer 1" xmlns="http://www.w3.org/2000/svg" viewBox="0 0 59.8 90.3"><defs><style>.cls-1{fill:#ffffff;}</style></defs><path class="cls-1" d="M29.9,57.9h0A16.7,16.7,0,0,0,46.6,41.2V16.6A16.6,16.6,0,0,0,29.9,0h0A16.6,16.6,0,0,0,13.2,16.6V41.2A16.7,16.7,0,0,0,29.9,57.9ZM20.7,16.6a9.2,9.2,0,0,1,18.4,0V41.2a9.2,9.2,0,0,1-18.4,0Z"/><path class="cls-1" d="M56.1,22a3.8,3.8,0,0,0-3.8,3.8V41A22.4,22.4,0,0,1,7.5,41V25.8A3.8,3.8,0,0,0,3.8,22,3.8,3.8,0,0,0,0,25.8V41A29.9,29.9,0,0,0,26.2,70.7V82.8H17.1a3.7,3.7,0,0,0-3.7,3.7,3.8,3.8,0,0,0,3.7,3.8H42.7a3.7,3.7,0,0,0,3.7-3.8,3.6,3.6,0,0,0-3.7-3.7h-9V70.7A29.9,29.9,0,0,0,59.8,41V25.8A3.8,3.8,0,0,0,56.1,22Z"/></svg>
