<?xml version="1.0" encoding="utf-8"?>
<!-- Generator: Adobe Illustrator 25.0.1, SVG Export Plug-In . SVG Version: 6.00 Build 0)  -->
<svg version="1.1" id="Layer_1" xmlns="http://www.w3.org/2000/svg" xmlns:xlink="http://www.w3.org/1999/xlink" x="0px" y="0px"
	 viewBox="0 0 90.2 90.2" style="enable-background:new 0 0 90.2 90.2;" xml:space="preserve">
<style type="text/css">
	.st0{fill:#FFFFFF;}
</style>
<g>
	<path class="st0" d="M84.2,0H28.6c-3.3,0-6,2.7-6,6v40.8H6c-3.3,0-6,2.7-6,6v23.2c0,7.9,6.4,14.3,14.3,14.3h0c0.6,0,1.2,0,1.8-0.1
		h68.2c3.3,0,6-2.7,6-6V6C90.2,2.7,87.6,0,84.2,0z M22.6,75.9c0,4.6-3.7,8.3-8.3,8.3S6,80.5,6,75.9V52.8h16.6V75.9z M84.2,84.1H26
		c1.6-2.3,2.6-5.1,2.6-8.2l0,0V6h55.6V84.1z"/>
	<path class="st0" d="M39.1,23.5h34.5c2.1,0,3.8-1.7,3.8-3.8s-1.7-3.9-3.8-3.8H39.1c-2.1,0-3.8,1.7-3.8,3.9
		C35.3,21.8,37,23.5,39.1,23.5z"/>
	<path class="st0" d="M39.1,40.6h34.5c2.1,0,3.8-1.7,3.8-3.8c0-2.1-1.7-3.9-3.8-3.9H39.1c-2.1,0-3.8,1.7-3.8,3.9
		C35.3,38.8,37,40.6,39.1,40.6z"/>
	<path class="st0" d="M39.1,58.2h34.5c2.1,0,3.8-1.7,3.8-3.8s-1.7-3.9-3.8-3.9H39.1c-2.1,0-3.8,1.7-3.8,3.9S37,58.2,39.1,58.2z"/>
	<path class="st0" d="M73.6,66.2H39.1c-2.1,0-3.8,1.7-3.8,3.9s1.7,3.8,3.8,3.8h34.5c2.1,0,3.8-1.7,3.8-3.8S75.7,66.2,73.6,66.2z"/>
</g>
</svg>
