<?xml version="1.0" encoding="utf-8"?>
<!-- Generator: Adobe Illustrator 21.0.0, SVG Export Plug-In . SVG Version: 6.00 Build 0)  -->
<svg version="1.1" id="Layer_1" xmlns="http://www.w3.org/2000/svg" xmlns:xlink="http://www.w3.org/1999/xlink" x="0px" y="0px"
	 viewBox="0 0 68.3 90.2" style="enable-background:new 0 0 68.3 90.2;" xml:space="preserve">
<style type="text/css">
	.st0{fill:#ffffff;}
</style>
<g id="Group_529" transform="translate(-12.265 -0.346)">
	<g id="Group_351">
		<path id="Path_1598" class="st0" d="M26.8,62.5v7.4c0,2.7,2.2,4.9,4.9,4.9H61c2.7,0,4.9-2.2,4.9-4.9v-7.4
			c15.5-10.8,19.3-32,8.5-47.5s-32-19.3-47.5-8.5S7.6,38.5,18.4,54C20.6,57.3,23.5,60.2,26.8,62.5L26.8,62.5z M46.3,10.1
			c13.5,0,24.4,10.9,24.4,24.3c0,8-3.9,15.5-10.5,20l-4.1,2.9V65H36.6v-7.6l-4.1-2.9c-11.1-7.7-13.8-22.8-6.1-33.9
			C30.9,14,38.3,10.1,46.3,10.1z"/>
		<path id="Path_1599" class="st0" d="M56.1,90.6c2.7,0,4.9-2.2,4.9-4.9v-4.9H31.7v4.9c0,2.7,2.2,4.9,4.9,4.9H56.1z"/>
	</g>
</g>
</svg>
