<svg xmlns="http://www.w3.org/2000/svg" width="120.956" height="187.585"><path data-name="Path 1731" d="M115.883 79.086Q100.923 41.83 85.962 4.579c-.769-1.918-1.835-4.1-3.861-4.511-2.531-.52-4.543 2.024-5.87 4.242q-10.93 18.275-21.864 36.548L33.874 27.177c-1.372-.916-2.936-1.873-4.555-1.558-1.9.373-3.006 2.308-3.854 4.046C20.14 40.581 15.233 51.694 10.326 62.8 5.443 73.86.478 85.257.033 97.338c-.262 7.17 1.087 14.293 2.491 21.328q2.151 10.786 4.5 21.535c.746 3.426 1.266 7.052 2.337 10.393.673 2.092 2.18 2.546 4.121 3.16 5.759 1.817 11.476 3.778 17.207 5.678a17.138 17.138 0 014.572 2.026 17.163 17.163 0 014.131 4.828l12.085 18.33a6.232 6.232 0 002.938 2.812c2.527.814 4.794-1.7 6.264-3.916q6.76-10.173 13.517-20.346l12.737 6.3c1.455.72 3.158 1.451 4.641.79 1.259-.56 1.909-1.937 2.455-3.2q11.231-26.1 22.466-52.2c1.92-4.462 3.865-9.011 4.342-13.845.051-.535.087-1.07.1-1.6.234-6.974-2.433-13.799-5.054-20.325z" fill="#6b0a3f"/></svg>