<svg xmlns="http://www.w3.org/2000/svg" width="35" height="34.998"><g data-name="Group 348" fill="#c9e9fc"><path data-name="Path 1586" d="M7.672 19.462v-7.794H1a17.436 17.436 0 00-1 5.83 17.876 17.876 0 00.11 1.98h7.562z"/><path data-name="Path 1587" d="M7.672 3.478v-.45a17.642 17.642 0 00-4.656 4.66h4.656z"/><path data-name="Path 1588" d="M17.499 34.998a17.352 17.352 0 0010.478-3.48H7.022a17.351 17.351 0 0010.477 3.48z"/><path data-name="Path 1589" d="M2.938 27.214H32.06a17.249 17.249 0 001.838-3.583h-32.8a17.243 17.243 0 001.84 3.583z"/><path data-name="Path 1590" d="M34.925 15.898H19.513v-4.454h14.4a17.444 17.444 0 00-1.821-3.583H19.513V3.478h8.443A17.476 17.476 0 0011.65 1.006v6.681h7.794v3.982h-7.791v7.792h-.017v.017h23.253a17.7 17.7 0 00.111-1.98q-.001-.81-.075-1.6z"/></g></svg>