<svg xmlns="http://www.w3.org/2000/svg" width="35" height="34.998" viewBox="0 0 35 34.998">
  <g id="Group_348" data-name="Group 348" transform="translate(-504 -322.002)">
    <path id="Path_1586" data-name="Path 1586" d="M511.672,346.465v-7.794H505a17.436,17.436,0,0,0-1,5.83,17.876,17.876,0,0,0,.11,1.98h7.562Z" transform="translate(0 -5.001)" fill="#c9e9fc"/>
    <path id="Path_1587" data-name="Path 1587" d="M512.965,326.778v-.45a17.642,17.642,0,0,0-4.656,4.66h4.656Z" transform="translate(-1.293 -1.298)" fill="#c9e9fc"/>
    <path id="Path_1588" data-name="Path 1588" d="M524.509,370.508a17.352,17.352,0,0,0,10.478-3.48H514.032A17.351,17.351,0,0,0,524.509,370.508Z" transform="translate(-3.01 -13.508)" fill="#c9e9fc"/>
    <path id="Path_1589" data-name="Path 1589" d="M507.41,359.343h29.122a17.249,17.249,0,0,0,1.838-3.583h-32.8A17.243,17.243,0,0,0,507.41,359.343Z" transform="translate(-0.472 -10.127)" fill="#c9e9fc"/>
    <path id="Path_1590" data-name="Path 1590" d="M543.912,337.9H528.5v-4.454h14.4a17.444,17.444,0,0,0-1.821-3.583H528.5V325.48h8.443a17.476,17.476,0,0,0-16.306-2.472v6.681h7.794v3.982H520.64v7.792h-.017v.017h23.253a17.7,17.7,0,0,0,.111-1.98Q543.986,338.69,543.912,337.9Z" transform="translate(-4.987 0)" fill="#c9e9fc"/>
  </g>
</svg>
