<svg xmlns="http://www.w3.org/2000/svg" width="35" height="34.998"><defs><style>.cls-1{fill:#c9e9fb;}</style></defs><title>lang_en</title><g id="Layer_2" data-name="Layer 2"><g id="Layer_1-2" data-name="Layer 1"><path class="cls-1" d="M17.52,0a14.61,14.61,0,0,0-3.61.42V13.87H.37a16.71,16.71,0,0,0,0,7h13.5v13.5a18.28,18.28,0,0,0,3.61.37,15.9,15.9,0,0,0,3.44-.37V20.84h13.7a16.38,16.38,0,0,0,0-7H20.92V.33A19.39,19.39,0,0,0,17.52,0Z"/><path class="cls-1" d="M23.25,1v9.59l8-4A17.62,17.62,0,0,0,23.25,1Z"/><path class="cls-1" d="M11.58,1A17.74,17.74,0,0,0,3.78,6.6l7.8,4Z"/><path class="cls-1" d="M3.07,7.6a19.67,19.67,0,0,0-1.2,2l3.86,1.95H11Z"/><path class="cls-1" d="M33.17,9.55l-4,2h4.9C33.76,10.88,33.46,10.21,33.17,9.55Z"/><path class="cls-1" d="M1,23.13a19.07,19.07,0,0,0,.87,2l4-2Z"/><path class="cls-1" d="M24,23.13l8,4a19.67,19.67,0,0,0,1.2-2l-4-2Z"/><path class="cls-1" d="M11.58,24.12l-7.8,4a17.47,17.47,0,0,0,7.8,5.56Z"/><path class="cls-1" d="M23.33,24.12v9.59a17.45,17.45,0,0,0,7.89-5.56S23.33,24.12,23.33,24.12Z"/></g></g></svg>