<svg xmlns="http://www.w3.org/2000/svg" width="35" height="34.998"><defs><style>.cls-1{fill:#c9e9fb}</style></defs><g id="Layer_2" data-name="Layer 2"><g id="Layer_1-2" data-name="Layer 1"><path class="cls-1" d="M17.52 0a14.61 14.61 0 00-3.61.42v13.45H.37a16.71 16.71 0 000 7h13.5v13.5a18.28 18.28 0 003.61.37 15.9 15.9 0 003.44-.37V20.84h13.7a16.38 16.38 0 000-7h-13.7V.33a19.39 19.39 0 00-3.4-.33z"/><path class="cls-1" d="M23.25 1v9.59l8-4a17.62 17.62 0 00-8-5.59zM11.58 1a17.74 17.74 0 00-7.8 5.6l7.8 4zM3.07 7.6a19.67 19.67 0 00-1.2 2l3.86 1.95H11zm30.1 1.95l-4 2h4.9c-.31-.67-.61-1.34-.9-2zM1 23.13a19.07 19.07 0 00.87 2l4-2zm23 0l8 4a19.67 19.67 0 001.2-2l-4-2zm-12.42.99l-7.8 4a17.47 17.47 0 007.8 5.56zm11.75 0v9.59a17.45 17.45 0 007.89-5.56l-7.89-4.03z"/></g></g></svg>