<svg xmlns="http://www.w3.org/2000/svg" width="200" height="28.054"><g data-name="Group 3"><g data-name="Group 2" fill="#c9e9fc"><path data-name="Path 5" d="M24.275 23.218a12.7 12.7 0 01-10.325 4.831C5.65 28.049 0 21.971 0 14.021 0 6.19 5.611-.005 13.95-.005c4.208 0 7.442 1.285 9.858 4.13l-3.585 2.844a7.966 7.966 0 00-6.2-2.688c-5.221 0-9.118 4.052-9.118 9.74 0 5.65 3.936 9.742 9.041 9.742a8.293 8.293 0 006.741-3.273z"/><path data-name="Path 6" d="M29.804.389h4.676v22.873h13.248v4.4H29.804z"/><path data-name="Path 7" d="M53.224.389h4.715v27.275h-4.715z"/><path data-name="Path 8" d="M79.408 20.183h-.351L70.369 8.065h-.078v19.6h-4.637V.389h4.754l8.806 12.274L87.903.389h4.91v27.275h-4.754v-19.6h-.08z"/><path data-name="Path 9" d="M109.954 16.676h-4.753v10.988h-4.715V.389h9.468c5.923 0 10.092 2.61 10.092 8.144.001 5.611-4.285 8.143-10.092 8.143zm-.194-12.235h-4.559v8.222h4.6c3.156 0 5.378-1.208 5.378-4.13-.003-3.195-2.341-4.092-5.419-4.092z"/><path data-name="Path 10" d="M120.981 27.665L132.944.273h4.247l11.884 27.392h-5.182l-2.61-6.351H128.66l-2.689 6.351zm9.313-10.287h9.351l-4.6-11.144h-.078z"/><path data-name="Path 11" d="M175.492 23.218a12.706 12.706 0 01-10.326 4.831c-8.3 0-13.949-6.078-13.949-14.028 0-7.831 5.611-14.026 13.949-14.026 4.209 0 7.442 1.285 9.858 4.13l-3.585 2.844a7.966 7.966 0 00-6.2-2.688c-5.221 0-9.118 4.052-9.118 9.74 0 5.65 3.935 9.742 9.039 9.742a8.294 8.294 0 006.741-3.273z"/><path data-name="Path 12" d="M191.7 4.71v22.95h-4.714V4.71h-8.3V.385H200V4.71z"/></g></g></svg>