<svg xmlns="http://www.w3.org/2000/svg" xmlns:xlink="http://www.w3.org/1999/xlink" width="200.25" height="130.072"><defs><clipPath id="i"><path data-name="Path 1662" d="M355.591 502.35h.077l3.47 8.674h-7.055zm-2.544-7.864l-11.721 27.1h6.439l2.273-5.552h11.143l2.274 5.552h6.592l-11.681-27.1z" transform="translate(-341.326 -494.486)" fill="#c9e9fc"/></clipPath><clipPath id="f"><path data-name="Rectangle 13" fill="#c9e9fc" d="M0 0h6.091v26.986H0z"/></clipPath><clipPath id="j"><path data-name="Path 1663" d="M391.3 507.918c0 7.865 5.821 13.879 14.38 13.879a12.741 12.741 0 0010.217-4.819l-4.627-3.509a7.2 7.2 0 01-5.706 2.777 8.333 8.333 0 01.192-16.654 6.562 6.562 0 015.011 2.274l4.512-3.662c-2.236-3.008-5.977-4.164-9.715-4.164-8.52 0-14.265 6.014-14.265 13.879" transform="translate(-391.298 -494.039)" fill="#c9e9fc"/></clipPath><clipPath id="d"><path data-name="Path 1658" d="M141.436 507.918c0 7.865 5.822 13.879 14.379 13.879a12.742 12.742 0 0010.217-4.819l-4.627-3.509a7.2 7.2 0 01-5.7 2.777 8.333 8.333 0 01.192-16.654 6.562 6.562 0 015.011 2.274l4.51-3.662c-2.236-3.008-5.975-4.164-9.714-4.164-8.52 0-14.265 6.014-14.265 13.879" transform="translate(-141.436 -494.039)" fill="#c9e9fc"/></clipPath><clipPath id="e"><path data-name="Path 1659" d="M190.389 494.678v26.986h18.274v-5.629H196.4v-21.357z" transform="translate(-190.389 -494.678)" fill="#c9e9fc"/></clipPath><clipPath id="k"><path data-name="Path 1664" d="M436.746 494.678v5.551h7.748v21.435h6.092v-21.435h7.788v-5.551z" transform="translate(-436.746 -494.678)" fill="#c9e9fc"/></clipPath><clipPath id="g"><path data-name="Path 1660" d="M271.879 494.678l-7.633 11.222-7.672-11.218h-6.207v26.986h5.933V504.47h.077l7.71 11.218h.308l7.632-11.218h.077v17.194h6.09v-26.986z" transform="translate(-250.367 -494.678)" fill="#c9e9fc"/></clipPath><clipPath id="h"><path data-name="Path 1661" d="M313.89 499.8h3.7c2.274 0 4.24.54 4.24 3.2 0 2.584-2.121 3.277-4.2 3.277h-3.74zm-6.091-5.127v26.986h6.091v-10.288h4.01c5.744 0 10.254-2.505 10.254-8.367 0-5.82-4.742-8.326-10.409-8.326z" transform="translate(-307.799 -494.678)" fill="#c9e9fc"/></clipPath><linearGradient id="b" x1=".857" y1=".488" x2="-.652" y2=".355" xlink:href="#a"/><linearGradient id="c" x1=".771" y1=".907" x2="-.02" y2=".161" xlink:href="#a"/><linearGradient id="a" y1=".5" x2="1" y2=".5" gradientUnits="objectBoundingBox"><stop offset="0" stop-color="#6b0a40"/><stop offset=".406" stop-color="#dc1b26"/><stop offset=".996" stop-color="#fba120"/></linearGradient></defs><g data-name="Group 428"><g data-name="Group 360"><path data-name="Path 1" d="M326.549 494.455l-7.6 8.08-.607.644a1.5 1.5 0 01-2.156.2 23.226 23.226 0 00-11.209-5.409 21.65 21.65 0 00-7.457-.021h-.012a35.626 35.626 0 00-28.775 20.686 35.371 35.371 0 01-2.935-10.525 36.355 36.355 0 012.454-6.272c.081-.162.166-.326.25-.485q.146-.281.3-.558c-.008-.028-.018-.052-.025-.078s-.013-.053-.022-.081a37.05 37.05 0 0128.7-18.728 36.139 36.139 0 0118.475 2.936c2.047.939 13.011 6.735 10.619 9.611z" transform="translate(-195.376 -481.729)" fill="url(#a)"/><path data-name="Path 2" d="M300.581 557.359A35.629 35.629 0 01272 536.7a35.626 35.626 0 0128.775-20.686c-.6.106-1.2.234-1.791.39h-.018l-.538.151-.179.053-.034.008-.039.008-.028.007h.018l.028-.006a20.363 20.363 0 00-12.623 11.394.233.233 0 00-.009.025 20.822 20.822 0 00-.257 16.911c.1.261.214.522.329.778a.851.851 0 00.056.066 20.226 20.226 0 001.11 2.001c.008.016.019.031.028.049a19.664 19.664 0 0013.753 9.51z" transform="translate(-198.642 -499.786)" fill="url(#b)"/><path data-name="Path 3" d="M314.417 581.966a35.47 35.47 0 01-14.724 3.12 37.515 37.515 0 01-25.124-9.582 36.242 36.242 0 01-10.415-16.965 38.374 38.374 0 010-21.059 35.569 35.569 0 0031.519 31.187 22.933 22.933 0 0019-5.234 1.5 1.5 0 012.155.2l.453.484 7.757 8.241c2.362 2.829-8.597 8.686-10.621 9.608z" transform="translate(-193.735 -511.094)" fill="url(#c)"/></g><g data-name="Group 377"><g data-name="Group 362"><g data-name="Group 361" clip-path="url(#d)" transform="translate(0 90.867)"><path data-name="Rectangle 10" fill="#c9e9fc" d="M0 0h24.596v27.758H0z"/></g></g><g data-name="Group 364"><g data-name="Group 363" clip-path="url(#e)" transform="translate(29.61 91.253)"><path data-name="Rectangle 11" fill="#c9e9fc" d="M0 0h18.274v26.986H0z"/></g></g><g data-name="Group 366"><g data-name="Group 365" clip-path="url(#f)" transform="translate(52.897 91.253)"><path data-name="Rectangle 12" fill="#c9e9fc" d="M0 0h6.091v26.986H0z"/></g></g><g data-name="Group 368"><g data-name="Group 367" clip-path="url(#g)" transform="translate(65.889 91.253)"><path data-name="Rectangle 14" fill="#c9e9fc" d="M0 0h27.833v26.986H0z"/></g></g><g data-name="Group 370"><g data-name="Group 369" clip-path="url(#h)" transform="translate(100.627 91.254)"><path data-name="Rectangle 15" fill="#c9e9fc" d="M0 0h20.355v26.986H0z"/></g></g><g data-name="Group 372"><g data-name="Group 371" clip-path="url(#i)" transform="translate(120.907 91.137)"><path data-name="Rectangle 16" fill="#c9e9fc" d="M0 0h28.721v27.102H0z"/></g></g><g data-name="Group 374"><g data-name="Group 373" clip-path="url(#j)" transform="translate(151.133 90.867)"><path data-name="Rectangle 17" fill="#c9e9fc" d="M0 0h24.597v27.758H0z"/></g></g><g data-name="Group 376"><g data-name="Group 375" clip-path="url(#k)" transform="translate(178.623 91.253)"><path data-name="Rectangle 18" fill="#c9e9fc" d="M0 0h21.628v26.986H0z"/></g></g><path data-name="Path 1760" d="M2.683 129.999h3.463v-.562H3.287v-1.785h2.52v-.553h-2.52v-1.578h2.79v-.562H2.683zm8.913-2.282v-.554H9.17v.554zm-1.219 2.354a2.538 2.538 0 002.6-2.592 2.561 2.561 0 00-2.583-2.592 2.544 2.544 0 00-2.607 2.592 2.545 2.545 0 002.59 2.592zm.017-.562a1.977 1.977 0 01-1.98-2.03 1.952 1.952 0 011.963-2.03 1.971 1.971 0 011.973 2.03 1.955 1.955 0 01-1.956 2.03zm8.316-.59l-3.154-3.96h-.579v5.04h.6v-4.039h.014l3.22 4.039h.511v-5.04h-.59v3.96zm2.887 1.08h.6v-5.04h-.6zm3.48-5.04h-.6v5.04h.6v-1.57l.785-.806 1.941 2.376h.774l-2.3-2.822 2.146-2.218h-.785l-2.561 2.664zm7.255 5.112a2.542 2.542 0 002.6-2.592 2.566 2.566 0 00-2.585-2.592 2.542 2.542 0 00-2.6 2.592 2.544 2.544 0 002.585 2.592zm.015-.562a1.98 1.98 0 01-1.97-2.03 1.955 1.955 0 011.958-2.03 1.975 1.975 0 011.973 2.03 1.955 1.955 0 01-1.961 2.03zm11.224-.057h-3.24l1.627-3.78h.019zm-4.118.547h5.024l-2.21-5.062h-.576zm6.824 0h.6v-5.04h-.6zm3.485-5.04h-.6v5.04h.6v-1.57l.785-.806 1.938 2.376h.778l-2.3-2.822 2.141-2.218h-.785l-2.556 2.664zm8.611.562v-.562h-3.836v.562h1.62v4.478h.6v-4.478zm3.55 1.757h-.014l-1.5-2.318h-.727l1.925 2.908v2.131h.6v-2.138l1.922-2.9h-.706zm5.854 2.793a2.542 2.542 0 002.6-2.592 2.566 2.566 0 00-2.585-2.592 2.542 2.542 0 00-2.6 2.592 2.544 2.544 0 002.585 2.592zm.014-.562a1.98 1.98 0 01-1.973-2.03 1.955 1.955 0 011.959-2.03 1.975 1.975 0 011.973 2.03 1.955 1.955 0 01-1.958 2.03zm7.576.49h.6v-4.478h2.614v-.562h-3.214zm5.026 0h.6v-5.04h-.6zm3.053 0l.569-1.3H86.6l.546 1.3h.677l-2.2-5.062h-.576l-2.243 5.062zm1.865-4.32h.014l1.052 2.484h-2.14zm10.685-.158v-.562h-3.839v.562h1.62v4.478h.6v-4.478zm1.813 4.478h.6v-2.347h2.714v2.347h.6v-5.04h-.6v2.14h-2.709v-2.14h-.6zm10.068-1.08l-3.154-3.96h-.583v5.04h.6v-4.039h.014l3.229 4.039h.511v-5.04h-.59v3.96zm6.487-3.96h-.6v5.04h.6v-1.57l.785-.806 1.942 2.376h.778l-2.3-2.822 2.138-2.218h-.785l-2.556 2.664zm7.2.756h.014l1.748 4.284h.67l-2.119-5.062h-.576l-2.13 5.062h.634zm4.231 4.284h.6v-5.04h-.6zm7.092-4.039h.014v4.039h.612v-5.04h-.636l-1.771 2.448-1.829-2.448h-.6v5.04h.6v-4.039h.014l1.786 2.4h.065zm3.075 4.039l.569-1.3h2.585l.547 1.3h.677l-2.2-5.062h-.576l-2.243 5.062zm1.865-4.32h.014l1.051 2.484h-2.138zm7.042-.158v-.562h-3.838v.562h1.62v4.478h.6v-4.478zm1.814 4.478h.6v-5.04h-.6zm3.485-5.04h-.6v5.04h.6v-1.57l.785-.806 1.936 2.376h.778l-2.3-2.822 2.138-2.218h-.785l-2.553 2.664zm5.309 5.04h.6v-2.347h2.714v2.347h.6v-5.04h-.6v2.14h-2.714v-2.14h-.6zm9.5 0l.569-1.3h2.585l.546 1.3h.677l-2.2-5.062h-.577l-2.24 5.062zm1.865-4.32h.014l1.051 2.484h-2.138zm6.206.036h.014l1.744 4.284h.67l-2.117-5.062h-.576l-2.132 5.062h.634zm6.12 0h.014l1.744 4.284h.67l-2.119-5.062h-.576l-2.13 5.062h.634zm4.364 4.284l.569-1.3h2.585l.547 1.3h.677l-2.2-5.062h-.576l-2.243 5.062zm1.865-4.32h.014l1.051 2.484h-2.138zm4.313 4.32h.6v-4.478h2.614v-.562h-3.218zm5.026 0h.6v-2.347h2.714v2.347h.6v-5.04h-.6v2.14h-2.714v-2.14h-.6z" fill="#c9e9fc"/></g></g></svg>