<svg xmlns="http://www.w3.org/2000/svg" xmlns:xlink="http://www.w3.org/1999/xlink" width="213.696" height="132.401" viewBox="0 0 213.696 132.401">
  <defs>
    <linearGradient id="linear-gradient" y1="0.5" x2="1" y2="0.5" gradientUnits="objectBoundingBox">
      <stop offset="0" stop-color="#6b0a40"/>
      <stop offset="0.406" stop-color="#dc1b26"/>
      <stop offset="0.996" stop-color="#fba120"/>
    </linearGradient>
    <linearGradient id="linear-gradient-2" x1="0.857" y1="0.488" x2="-0.652" y2="0.355" xlink:href="#linear-gradient"/>
    <linearGradient id="linear-gradient-3" x1="0.771" y1="0.907" x2="-0.02" y2="0.161" xlink:href="#linear-gradient"/>
    <clipPath id="clip-path">
      <path id="Path_1658" data-name="Path 1658" d="M141.436,507.918c0,7.865,5.822,13.879,14.379,13.879a12.742,12.742,0,0,0,10.217-4.819l-4.627-3.509a7.2,7.2,0,0,1-5.7,2.777,8.333,8.333,0,0,1,.192-16.654,6.562,6.562,0,0,1,5.011,2.274l4.51-3.662c-2.236-3.008-5.975-4.164-9.714-4.164-8.52,0-14.265,6.014-14.265,13.879" transform="translate(-141.436 -494.039)" fill="#c9e9fc"/>
    </clipPath>
    <clipPath id="clip-path-2">
      <path id="Path_1659" data-name="Path 1659" d="M190.389,494.678v26.986h18.274v-5.629H196.4V494.678Z" transform="translate(-190.389 -494.678)" fill="#c9e9fc"/>
    </clipPath>
    <clipPath id="clip-path-3">
      <rect id="Rectangle_13" data-name="Rectangle 13" width="6.091" height="26.986" fill="#c9e9fc"/>
    </clipPath>
    <clipPath id="clip-path-4">
      <path id="Path_1660" data-name="Path 1660" d="M271.879,494.678,264.246,505.9l-7.672-11.218h-6.207v26.986H256.3V504.47h.077l7.71,11.218h.308l7.632-11.218h.077v17.194h6.09V494.678Z" transform="translate(-250.367 -494.678)" fill="#c9e9fc"/>
    </clipPath>
    <clipPath id="clip-path-5">
      <path id="Path_1661" data-name="Path 1661" d="M313.89,499.8h3.7c2.274,0,4.24.54,4.24,3.2,0,2.584-2.121,3.277-4.2,3.277H313.89Zm-6.091-5.127v26.986h6.091V511.371h4.01c5.744,0,10.254-2.505,10.254-8.367,0-5.82-4.742-8.326-10.409-8.326Z" transform="translate(-307.799 -494.678)" fill="#c9e9fc"/>
    </clipPath>
    <clipPath id="clip-path-6">
      <path id="Path_1662" data-name="Path 1662" d="M355.591,502.35h.077l3.47,8.674h-7.055Zm-2.544-7.864-11.721,27.1h6.439l2.273-5.552h11.143l2.274,5.552h6.592l-11.681-27.1Z" transform="translate(-341.326 -494.486)" fill="#c9e9fc"/>
    </clipPath>
    <clipPath id="clip-path-7">
      <path id="Path_1663" data-name="Path 1663" d="M391.3,507.918c0,7.865,5.821,13.879,14.38,13.879a12.741,12.741,0,0,0,10.217-4.819l-4.627-3.509a7.2,7.2,0,0,1-5.706,2.777,8.333,8.333,0,0,1,.192-16.654,6.562,6.562,0,0,1,5.011,2.274l4.512-3.662c-2.236-3.008-5.977-4.164-9.715-4.164-8.52,0-14.265,6.014-14.265,13.879" transform="translate(-391.298 -494.039)" fill="#c9e9fc"/>
    </clipPath>
    <clipPath id="clip-path-8">
      <path id="Path_1664" data-name="Path 1664" d="M436.746,494.678v5.551h7.748v21.435h6.092V500.229h7.788v-5.551Z" transform="translate(-436.746 -494.678)" fill="#c9e9fc"/>
    </clipPath>
  </defs>
  <g id="Group_428" data-name="Group 428" transform="translate(6542.977 -3311)">
    <g id="Group_360" data-name="Group 360" transform="translate(-6474.031 3311)">
      <path id="Path_1" data-name="Path 1" d="M326.549,494.455l-7.6,8.08-.607.644a1.5,1.5,0,0,1-2.156.2,23.226,23.226,0,0,0-11.209-5.409,21.65,21.65,0,0,0-7.457-.021h-.012a35.626,35.626,0,0,0-28.775,20.686,35.371,35.371,0,0,1-2.935-10.525,36.355,36.355,0,0,1,2.454-6.272c.081-.162.166-.326.25-.485q.146-.281.3-.558v0c-.008-.028-.018-.052-.025-.078s-.013-.053-.022-.081a37.05,37.05,0,0,1,28.7-18.728,36.139,36.139,0,0,1,18.475,2.936C317.977,485.783,328.941,491.579,326.549,494.455Z" transform="translate(-264.322 -481.729)" fill="url(#linear-gradient)"/>
      <path id="Path_2" data-name="Path 2" d="M300.581,557.359A35.629,35.629,0,0,1,272,536.7a35.626,35.626,0,0,1,28.775-20.686c-.6.106-1.2.234-1.791.39l-.018,0-.538.151-.179.053-.034.008-.039.008-.028.007c.006,0,.01,0,.018,0l.028-.006a20.363,20.363,0,0,0-12.623,11.394.233.233,0,0,0-.009.025,20.822,20.822,0,0,0-.257,16.911c.1.261.214.522.329.778h0c.017.023.036.044.056.066A20.226,20.226,0,0,0,286.8,547.8c.008.016.019.031.028.049A19.664,19.664,0,0,0,300.581,557.359Z" transform="translate(-267.588 -499.786)" fill="url(#linear-gradient-2)"/>
      <path id="Path_3" data-name="Path 3" d="M314.417,581.966a35.47,35.47,0,0,1-14.724,3.12,37.515,37.515,0,0,1-25.124-9.582,36.242,36.242,0,0,1-10.415-16.965,38.374,38.374,0,0,1,0-21.059,35.569,35.569,0,0,0,31.519,31.187,22.933,22.933,0,0,0,19-5.234,1.5,1.5,0,0,1,2.155.2l.453.484,7.757,8.241C327.4,575.187,316.441,581.044,314.417,581.966Z" transform="translate(-262.681 -511.094)" fill="url(#linear-gradient-3)"/>
    </g>
    <g id="Group_377" data-name="Group 377" transform="translate(-6542.977 3401.867)">
      <g id="Group_362" data-name="Group 362">
        <g id="Group_361" data-name="Group 361" clip-path="url(#clip-path)">
          <rect id="Rectangle_10" data-name="Rectangle 10" width="24.596" height="27.758" fill="#c9e9fc"/>
        </g>
      </g>
      <g id="Group_364" data-name="Group 364" transform="translate(29.61 0.386)">
        <g id="Group_363" data-name="Group 363" clip-path="url(#clip-path-2)">
          <rect id="Rectangle_11" data-name="Rectangle 11" width="18.274" height="26.986" fill="#c9e9fc"/>
        </g>
      </g>
      <g id="Group_366" data-name="Group 366" transform="translate(52.897 0.386)">
        <g id="Group_365" data-name="Group 365" clip-path="url(#clip-path-3)">
          <rect id="Rectangle_12" data-name="Rectangle 12" width="6.091" height="26.986" transform="translate(0)" fill="#c9e9fc"/>
        </g>
      </g>
      <g id="Group_368" data-name="Group 368" transform="translate(65.889 0.386)">
        <g id="Group_367" data-name="Group 367" clip-path="url(#clip-path-4)">
          <rect id="Rectangle_14" data-name="Rectangle 14" width="27.833" height="26.986" transform="translate(0)" fill="#c9e9fc"/>
        </g>
      </g>
      <g id="Group_370" data-name="Group 370" transform="translate(100.627 0.387)">
        <g id="Group_369" data-name="Group 369" clip-path="url(#clip-path-5)">
          <rect id="Rectangle_15" data-name="Rectangle 15" width="20.355" height="26.986" transform="translate(0 0)" fill="#c9e9fc"/>
        </g>
      </g>
      <g id="Group_372" data-name="Group 372" transform="translate(120.907 0.27)">
        <g id="Group_371" data-name="Group 371" clip-path="url(#clip-path-6)">
          <rect id="Rectangle_16" data-name="Rectangle 16" width="28.721" height="27.102" fill="#c9e9fc"/>
        </g>
      </g>
      <g id="Group_374" data-name="Group 374" transform="translate(151.133)">
        <g id="Group_373" data-name="Group 373" clip-path="url(#clip-path-7)">
          <rect id="Rectangle_17" data-name="Rectangle 17" width="24.597" height="27.758" transform="translate(0 0)" fill="#c9e9fc"/>
        </g>
      </g>
      <g id="Group_376" data-name="Group 376" transform="translate(178.623 0.386)">
        <g id="Group_375" data-name="Group 375" clip-path="url(#clip-path-8)">
          <rect id="Rectangle_18" data-name="Rectangle 18" width="21.628" height="26.986" transform="translate(0)" fill="#c9e9fc"/>
        </g>
      </g>
      <text id="ΕΘΝΙΚΟ_ΔΙΚΤΥΟ_ΓΙΑ_ΤΗΝ_ΚΛΙΜΑΤΙΚΗ_ΑΛΛΑΓΗ" data-name="ΕΘΝΙΚΟ ΔΙΚΤΥΟ ΓΙΑ ΤΗΝ ΚΛΙΜΑΤΙΚΗ ΑΛΛΑΓΗ" transform="translate(1.696 39.533)" fill="#c9e9fc" font-size="8" font-family="Helvetica" letter-spacing="0.12em"><tspan x="0" y="0">ΕΘΝΙΚΟ ΔΙΚΤΥΟ ΓΙΑ ΤΗΝ ΚΛΙΜΑΤΙΚΗ ΑΛΛΑΓΗ</tspan></text>
    </g>
  </g>
</svg>
