<svg xmlns="http://www.w3.org/2000/svg" width="200" height="28.054" viewBox="0 0 200 28.054">
  <g id="Group_3" data-name="Group 3" transform="translate(-190.893 -659.682)">
    <g id="Group_2" data-name="Group 2" transform="translate(190.893 659.682)">
      <path id="Path_5" data-name="Path 5" d="M215.168,682.9a12.7,12.7,0,0,1-10.325,4.831c-8.3,0-13.95-6.078-13.95-14.028,0-7.831,5.611-14.026,13.95-14.026,4.208,0,7.442,1.285,9.858,4.13l-3.585,2.844a7.966,7.966,0,0,0-6.2-2.688c-5.221,0-9.118,4.052-9.118,9.74,0,5.65,3.936,9.742,9.041,9.742a8.293,8.293,0,0,0,6.741-3.273Z" transform="translate(-190.893 -659.682)" fill="#c9e9fc"/>
      <path id="Path_6" data-name="Path 6" d="M236.6,660.279h4.676v22.873h13.248v4.4H236.6Z" transform="translate(-206.796 -659.89)" fill="#c9e9fc"/>
      <path id="Path_7" data-name="Path 7" d="M272.513,660.279h4.715v27.275h-4.715Z" transform="translate(-219.289 -659.89)" fill="#c9e9fc"/>
      <path id="Path_8" data-name="Path 8" d="M305.329,680.073h-.351l-8.688-12.118h-.078v19.6h-4.637V660.279h4.754l8.806,12.274,8.689-12.274h4.91v27.275h-4.754v-19.6H313.9Z" transform="translate(-225.921 -659.89)" fill="#c9e9fc"/>
      <path id="Path_9" data-name="Path 9" d="M354.46,676.566h-4.753v10.988h-4.715V660.279h9.468c5.923,0,10.092,2.61,10.092,8.144C364.553,674.034,360.267,676.566,354.46,676.566Zm-.194-12.235h-4.559v8.222h4.6c3.156,0,5.378-1.208,5.378-4.13C359.682,665.228,357.344,664.331,354.266,664.331Z" transform="translate(-244.506 -659.89)" fill="#c9e9fc"/>
      <path id="Path_10" data-name="Path 10" d="M376.421,687.492,388.384,660.1h4.247l11.884,27.392h-5.182l-2.61-6.351H384.1l-2.689,6.351Zm9.313-10.287h9.351l-4.6-11.144h-.078Z" transform="translate(-255.44 -659.827)" fill="#c9e9fc"/>
      <path id="Path_11" data-name="Path 11" d="M447.064,682.9a12.706,12.706,0,0,1-10.326,4.831c-8.3,0-13.949-6.078-13.949-14.028,0-7.831,5.611-14.026,13.949-14.026,4.209,0,7.442,1.285,9.858,4.13l-3.585,2.844a7.966,7.966,0,0,0-6.2-2.688c-5.221,0-9.118,4.052-9.118,9.74,0,5.65,3.935,9.742,9.039,9.742a8.294,8.294,0,0,0,6.741-3.273Z" transform="translate(-271.572 -659.682)" fill="#c9e9fc"/>
      <path id="Path_12" data-name="Path 12" d="M477.927,664.6v22.95h-4.714V664.6h-8.3v-4.325h21.314V664.6Z" transform="translate(-286.227 -659.89)" fill="#c9e9fc"/>
    </g>
  </g>
</svg>
