<svg xmlns="http://www.w3.org/2000/svg" xmlns:xlink="http://www.w3.org/1999/xlink" width="200.25" height="130.072" viewBox="0 0 200.25 130.072">
  <defs>
    <linearGradient id="linear-gradient" y1="0.5" x2="1" y2="0.5" gradientUnits="objectBoundingBox">
      <stop offset="0" stop-color="#6b0a40"/>
      <stop offset="0.406" stop-color="#dc1b26"/>
      <stop offset="0.996" stop-color="#fba120"/>
    </linearGradient>
    <linearGradient id="linear-gradient-2" x1="0.857" y1="0.488" x2="-0.652" y2="0.355" xlink:href="#linear-gradient"/>
    <linearGradient id="linear-gradient-3" x1="0.771" y1="0.907" x2="-0.02" y2="0.161" xlink:href="#linear-gradient"/>
    <clipPath id="clip-path">
      <path id="Path_1658" data-name="Path 1658" d="M141.436,507.918c0,7.865,5.822,13.879,14.379,13.879a12.742,12.742,0,0,0,10.217-4.819l-4.627-3.509a7.2,7.2,0,0,1-5.7,2.777,8.333,8.333,0,0,1,.192-16.654,6.562,6.562,0,0,1,5.011,2.274l4.51-3.662c-2.236-3.008-5.975-4.164-9.714-4.164-8.52,0-14.265,6.014-14.265,13.879" transform="translate(-141.436 -494.039)" fill="#c9e9fc"/>
    </clipPath>
    <clipPath id="clip-path-2">
      <path id="Path_1659" data-name="Path 1659" d="M190.389,494.678v26.986h18.274v-5.629H196.4V494.678Z" transform="translate(-190.389 -494.678)" fill="#c9e9fc"/>
    </clipPath>
    <clipPath id="clip-path-3">
      <rect id="Rectangle_13" data-name="Rectangle 13" width="6.091" height="26.986" fill="#c9e9fc"/>
    </clipPath>
    <clipPath id="clip-path-4">
      <path id="Path_1660" data-name="Path 1660" d="M271.879,494.678,264.246,505.9l-7.672-11.218h-6.207v26.986H256.3V504.47h.077l7.71,11.218h.308l7.632-11.218h.077v17.194h6.09V494.678Z" transform="translate(-250.367 -494.678)" fill="#c9e9fc"/>
    </clipPath>
    <clipPath id="clip-path-5">
      <path id="Path_1661" data-name="Path 1661" d="M313.89,499.8h3.7c2.274,0,4.24.54,4.24,3.2,0,2.584-2.121,3.277-4.2,3.277H313.89Zm-6.091-5.127v26.986h6.091V511.371h4.01c5.744,0,10.254-2.505,10.254-8.367,0-5.82-4.742-8.326-10.409-8.326Z" transform="translate(-307.799 -494.678)" fill="#c9e9fc"/>
    </clipPath>
    <clipPath id="clip-path-6">
      <path id="Path_1662" data-name="Path 1662" d="M355.591,502.35h.077l3.47,8.674h-7.055Zm-2.544-7.864-11.721,27.1h6.439l2.273-5.552h11.143l2.274,5.552h6.592l-11.681-27.1Z" transform="translate(-341.326 -494.486)" fill="#c9e9fc"/>
    </clipPath>
    <clipPath id="clip-path-7">
      <path id="Path_1663" data-name="Path 1663" d="M391.3,507.918c0,7.865,5.821,13.879,14.38,13.879a12.741,12.741,0,0,0,10.217-4.819l-4.627-3.509a7.2,7.2,0,0,1-5.706,2.777,8.333,8.333,0,0,1,.192-16.654,6.562,6.562,0,0,1,5.011,2.274l4.512-3.662c-2.236-3.008-5.977-4.164-9.715-4.164-8.52,0-14.265,6.014-14.265,13.879" transform="translate(-391.298 -494.039)" fill="#c9e9fc"/>
    </clipPath>
    <clipPath id="clip-path-8">
      <path id="Path_1664" data-name="Path 1664" d="M436.746,494.678v5.551h7.748v21.435h6.092V500.229h7.788v-5.551Z" transform="translate(-436.746 -494.678)" fill="#c9e9fc"/>
    </clipPath>
  </defs>
  <g id="Group_428" data-name="Group 428" transform="translate(6542.977 -3311)">
    <g id="Group_360" data-name="Group 360" transform="translate(-6474.031 3311)">
      <path id="Path_1" data-name="Path 1" d="M326.549,494.455l-7.6,8.08-.607.644a1.5,1.5,0,0,1-2.156.2,23.226,23.226,0,0,0-11.209-5.409,21.65,21.65,0,0,0-7.457-.021h-.012a35.626,35.626,0,0,0-28.775,20.686,35.371,35.371,0,0,1-2.935-10.525,36.355,36.355,0,0,1,2.454-6.272c.081-.162.166-.326.25-.485q.146-.281.3-.558v0c-.008-.028-.018-.052-.025-.078s-.013-.053-.022-.081a37.05,37.05,0,0,1,28.7-18.728,36.139,36.139,0,0,1,18.475,2.936C317.977,485.783,328.941,491.579,326.549,494.455Z" transform="translate(-264.322 -481.729)" fill="url(#linear-gradient)"/>
      <path id="Path_2" data-name="Path 2" d="M300.581,557.359A35.629,35.629,0,0,1,272,536.7a35.626,35.626,0,0,1,28.775-20.686c-.6.106-1.2.234-1.791.39l-.018,0-.538.151-.179.053-.034.008-.039.008-.028.007c.006,0,.01,0,.018,0l.028-.006a20.363,20.363,0,0,0-12.623,11.394.233.233,0,0,0-.009.025,20.822,20.822,0,0,0-.257,16.911c.1.261.214.522.329.778h0c.017.023.036.044.056.066A20.226,20.226,0,0,0,286.8,547.8c.008.016.019.031.028.049A19.664,19.664,0,0,0,300.581,557.359Z" transform="translate(-267.588 -499.786)" fill="url(#linear-gradient-2)"/>
      <path id="Path_3" data-name="Path 3" d="M314.417,581.966a35.47,35.47,0,0,1-14.724,3.12,37.515,37.515,0,0,1-25.124-9.582,36.242,36.242,0,0,1-10.415-16.965,38.374,38.374,0,0,1,0-21.059,35.569,35.569,0,0,0,31.519,31.187,22.933,22.933,0,0,0,19-5.234,1.5,1.5,0,0,1,2.155.2l.453.484,7.757,8.241C327.4,575.187,316.441,581.044,314.417,581.966Z" transform="translate(-262.681 -511.094)" fill="url(#linear-gradient-3)"/>
    </g>
    <g id="Group_377" data-name="Group 377" transform="translate(-6542.977 3401.867)">
      <g id="Group_362" data-name="Group 362">
        <g id="Group_361" data-name="Group 361" clip-path="url(#clip-path)">
          <rect id="Rectangle_10" data-name="Rectangle 10" width="24.596" height="27.758" fill="#c9e9fc"/>
        </g>
      </g>
      <g id="Group_364" data-name="Group 364" transform="translate(29.61 0.386)">
        <g id="Group_363" data-name="Group 363" clip-path="url(#clip-path-2)">
          <rect id="Rectangle_11" data-name="Rectangle 11" width="18.274" height="26.986" fill="#c9e9fc"/>
        </g>
      </g>
      <g id="Group_366" data-name="Group 366" transform="translate(52.897 0.386)">
        <g id="Group_365" data-name="Group 365" clip-path="url(#clip-path-3)">
          <rect id="Rectangle_12" data-name="Rectangle 12" width="6.091" height="26.986" transform="translate(0)" fill="#c9e9fc"/>
        </g>
      </g>
      <g id="Group_368" data-name="Group 368" transform="translate(65.889 0.386)">
        <g id="Group_367" data-name="Group 367" clip-path="url(#clip-path-4)">
          <rect id="Rectangle_14" data-name="Rectangle 14" width="27.833" height="26.986" transform="translate(0)" fill="#c9e9fc"/>
        </g>
      </g>
      <g id="Group_370" data-name="Group 370" transform="translate(100.627 0.387)">
        <g id="Group_369" data-name="Group 369" clip-path="url(#clip-path-5)">
          <rect id="Rectangle_15" data-name="Rectangle 15" width="20.355" height="26.986" transform="translate(0 0)" fill="#c9e9fc"/>
        </g>
      </g>
      <g id="Group_372" data-name="Group 372" transform="translate(120.907 0.27)">
        <g id="Group_371" data-name="Group 371" clip-path="url(#clip-path-6)">
          <rect id="Rectangle_16" data-name="Rectangle 16" width="28.721" height="27.102" fill="#c9e9fc"/>
        </g>
      </g>
      <g id="Group_374" data-name="Group 374" transform="translate(151.133)">
        <g id="Group_373" data-name="Group 373" clip-path="url(#clip-path-7)">
          <rect id="Rectangle_17" data-name="Rectangle 17" width="24.597" height="27.758" transform="translate(0 0)" fill="#c9e9fc"/>
        </g>
      </g>
      <g id="Group_376" data-name="Group 376" transform="translate(178.623 0.386)">
        <g id="Group_375" data-name="Group 375" clip-path="url(#clip-path-8)">
          <rect id="Rectangle_18" data-name="Rectangle 18" width="21.628" height="26.986" transform="translate(0)" fill="#c9e9fc"/>
        </g>
      </g>
      <path id="Path_1760" data-name="Path 1760" d="M.706,0H4.169V-.562H1.31V-2.347H3.83V-2.9H1.31V-4.478H4.1V-5.04H.706ZM9.619-2.282v-.554H7.193v.554ZM8.4.072A2.538,2.538,0,0,0,11-2.52,2.561,2.561,0,0,0,8.417-5.112,2.544,2.544,0,0,0,5.81-2.52,2.545,2.545,0,0,0,8.4.072ZM8.417-.49a1.977,1.977,0,0,1-1.98-2.03A1.952,1.952,0,0,1,8.4-4.55a1.971,1.971,0,0,1,1.973,2.03A1.955,1.955,0,0,1,8.417-.49Zm8.316-.59L13.579-5.04H13V0h.6V-4.039h.014L16.834,0h.511V-5.04h-.59v3.96ZM19.62,0h.6V-5.04h-.6ZM23.1-5.04h-.6V0h.6V-1.57l.785-.806L25.826,0H26.6l-2.3-2.822L26.446-5.04h-.785L23.1-2.376ZM30.355.072a2.542,2.542,0,0,0,2.6-2.592A2.566,2.566,0,0,0,30.37-5.112a2.542,2.542,0,0,0-2.6,2.592A2.544,2.544,0,0,0,30.355.072ZM30.37-.49A1.98,1.98,0,0,1,28.4-2.52a1.955,1.955,0,0,1,1.958-2.03,1.975,1.975,0,0,1,1.973,2.03A1.955,1.955,0,0,1,30.37-.49ZM41.594-.547h-3.24l1.627-3.78H40ZM37.476,0H42.5l-2.21-5.062h-.576ZM44.3,0h.6V-5.04h-.6Zm3.485-5.04h-.6V0h.6V-1.57l.785-.806L50.508,0h.778l-2.3-2.822L51.127-5.04h-.785L47.786-2.376Zm8.611.562V-5.04H52.56v.562h1.62V0h.6V-4.478Zm3.55,1.757h-.014l-1.5-2.318h-.727L59.63-2.131V0h.6V-2.138l1.922-2.9h-.706ZM65.8.072A2.542,2.542,0,0,0,68.4-2.52a2.566,2.566,0,0,0-2.585-2.592,2.542,2.542,0,0,0-2.6,2.592A2.544,2.544,0,0,0,65.8.072Zm.014-.562a1.98,1.98,0,0,1-1.973-2.03A1.955,1.955,0,0,1,65.8-4.55a1.975,1.975,0,0,1,1.973,2.03A1.955,1.955,0,0,1,65.815-.49ZM73.39,0h.6V-4.478h2.614V-5.04H73.39Zm5.026,0h.6V-5.04h-.6Zm3.053,0,.569-1.3h2.585L85.169,0h.677l-2.2-5.062h-.576L80.827,0Zm1.865-4.32h.014L84.4-1.836H82.26Zm10.685-.158V-5.04H90.18v.562H91.8V0h.6V-4.478ZM95.832,0h.6V-2.347h2.714V0h.6V-5.04h-.6V-2.9H96.437V-5.04h-.6ZM105.9-1.08l-3.154-3.96h-.583V0h.6V-4.039h.014L106.006,0h.511V-5.04h-.59v3.96Zm6.487-3.96h-.6V0h.6V-1.57l.785-.806L115.114,0h.778l-2.3-2.822,2.138-2.218h-.785l-2.556,2.664Zm7.2.756h.014L121.349,0h.67L119.9-5.062h-.576L117.194,0h.634ZM123.818,0h.6V-5.04h-.6Zm7.092-4.039h.014V0h.612V-5.04H130.9l-1.771,2.448L127.3-5.04h-.6V0h.6V-4.039h.014l1.786,2.4h.065ZM133.985,0l.569-1.3h2.585l.547,1.3h.677l-2.2-5.062h-.576L133.344,0Zm1.865-4.32h.014l1.051,2.484h-2.138Zm7.042-.158V-5.04h-3.838v.562h1.62V0h.6V-4.478ZM144.706,0h.6V-5.04h-.6Zm3.485-5.04h-.6V0h.6V-1.57l.785-.806L150.912,0h.778l-2.3-2.822,2.138-2.218h-.785L148.19-2.376ZM153.5,0h.6V-2.347h2.714V0h.6V-5.04h-.6V-2.9H154.1V-5.04h-.6ZM163,0l.569-1.3h2.585L166.7,0h.677l-2.2-5.062H164.6L162.36,0Zm1.865-4.32h.014l1.051,2.484h-2.138Zm6.206.036h.014L172.829,0h.67l-2.117-5.062h-.576L168.674,0h.634Zm6.12,0h.014L178.949,0h.67L177.5-5.062h-.576L174.794,0h.634ZM181.555,0l.569-1.3h2.585l.547,1.3h.677l-2.2-5.062h-.576L180.914,0Zm1.865-4.32h.014l1.051,2.484h-2.138ZM187.733,0h.6V-4.478h2.614V-5.04h-3.218Zm5.026,0h.6V-2.347h2.714V0h.6V-5.04h-.6V-2.9h-2.714V-5.04h-.6Z" transform="translate(1.977 39.132)" fill="#c9e9fc"/>
    </g>
  </g>
</svg>
