<svg xmlns="http://www.w3.org/2000/svg" xmlns:xlink="http://www.w3.org/1999/xlink" width="213.696" height="132.401"><defs><clipPath id="i"><path data-name="Path 1662" d="M355.591 502.35h.077l3.47 8.674h-7.055zm-2.544-7.864l-11.721 27.1h6.439l2.273-5.552h11.143l2.274 5.552h6.592l-11.681-27.1z" transform="translate(-341.326 -494.486)" fill="#c9e9fc"/></clipPath><clipPath id="f"><path data-name="Rectangle 13" fill="#c9e9fc" d="M0 0h6.091v26.986H0z"/></clipPath><clipPath id="j"><path data-name="Path 1663" d="M391.3 507.918c0 7.865 5.821 13.879 14.38 13.879a12.741 12.741 0 0010.217-4.819l-4.627-3.509a7.2 7.2 0 01-5.706 2.777 8.333 8.333 0 01.192-16.654 6.562 6.562 0 015.011 2.274l4.512-3.662c-2.236-3.008-5.977-4.164-9.715-4.164-8.52 0-14.265 6.014-14.265 13.879" transform="translate(-391.298 -494.039)" fill="#c9e9fc"/></clipPath><clipPath id="d"><path data-name="Path 1658" d="M141.436 507.918c0 7.865 5.822 13.879 14.379 13.879a12.742 12.742 0 0010.217-4.819l-4.627-3.509a7.2 7.2 0 01-5.7 2.777 8.333 8.333 0 01.192-16.654 6.562 6.562 0 015.011 2.274l4.51-3.662c-2.236-3.008-5.975-4.164-9.714-4.164-8.52 0-14.265 6.014-14.265 13.879" transform="translate(-141.436 -494.039)" fill="#c9e9fc"/></clipPath><clipPath id="e"><path data-name="Path 1659" d="M190.389 494.678v26.986h18.274v-5.629H196.4v-21.357z" transform="translate(-190.389 -494.678)" fill="#c9e9fc"/></clipPath><clipPath id="k"><path data-name="Path 1664" d="M436.746 494.678v5.551h7.748v21.435h6.092v-21.435h7.788v-5.551z" transform="translate(-436.746 -494.678)" fill="#c9e9fc"/></clipPath><clipPath id="g"><path data-name="Path 1660" d="M271.879 494.678l-7.633 11.222-7.672-11.218h-6.207v26.986h5.933V504.47h.077l7.71 11.218h.308l7.632-11.218h.077v17.194h6.09v-26.986z" transform="translate(-250.367 -494.678)" fill="#c9e9fc"/></clipPath><clipPath id="h"><path data-name="Path 1661" d="M313.89 499.8h3.7c2.274 0 4.24.54 4.24 3.2 0 2.584-2.121 3.277-4.2 3.277h-3.74zm-6.091-5.127v26.986h6.091v-10.288h4.01c5.744 0 10.254-2.505 10.254-8.367 0-5.82-4.742-8.326-10.409-8.326z" transform="translate(-307.799 -494.678)" fill="#c9e9fc"/></clipPath><linearGradient id="b" x1=".857" y1=".488" x2="-.652" y2=".355" xlink:href="#a"/><linearGradient id="c" x1=".771" y1=".907" x2="-.02" y2=".161" xlink:href="#a"/><linearGradient id="a" y1=".5" x2="1" y2=".5" gradientUnits="objectBoundingBox"><stop offset="0" stop-color="#6b0a40"/><stop offset=".406" stop-color="#dc1b26"/><stop offset=".996" stop-color="#fba120"/></linearGradient></defs><g data-name="Group 428"><g data-name="Group 360"><path data-name="Path 1" d="M326.549 494.455l-7.6 8.08-.607.644a1.5 1.5 0 01-2.156.2 23.226 23.226 0 00-11.209-5.409 21.65 21.65 0 00-7.457-.021h-.012a35.626 35.626 0 00-28.775 20.686 35.371 35.371 0 01-2.935-10.525 36.355 36.355 0 012.454-6.272c.081-.162.166-.326.25-.485q.146-.281.3-.558c-.008-.028-.018-.052-.025-.078s-.013-.053-.022-.081a37.05 37.05 0 0128.7-18.728 36.139 36.139 0 0118.475 2.936c2.047.939 13.011 6.735 10.619 9.611z" transform="translate(-195.376 -481.729)" fill="url(#a)"/><path data-name="Path 2" d="M300.581 557.359A35.629 35.629 0 01272 536.7a35.626 35.626 0 0128.775-20.686c-.6.106-1.2.234-1.791.39h-.018l-.538.151-.179.053-.034.008-.039.008-.028.007h.018l.028-.006a20.363 20.363 0 00-12.623 11.394.233.233 0 00-.009.025 20.822 20.822 0 00-.257 16.911c.1.261.214.522.329.778a.851.851 0 00.056.066 20.226 20.226 0 001.11 2.001c.008.016.019.031.028.049a19.664 19.664 0 0013.753 9.51z" transform="translate(-198.642 -499.786)" fill="url(#b)"/><path data-name="Path 3" d="M314.417 581.966a35.47 35.47 0 01-14.724 3.12 37.515 37.515 0 01-25.124-9.582 36.242 36.242 0 01-10.415-16.965 38.374 38.374 0 010-21.059 35.569 35.569 0 0031.519 31.187 22.933 22.933 0 0019-5.234 1.5 1.5 0 012.155.2l.453.484 7.757 8.241c2.362 2.829-8.597 8.686-10.621 9.608z" transform="translate(-193.735 -511.094)" fill="url(#c)"/></g><g data-name="Group 377"><g data-name="Group 362"><g data-name="Group 361" clip-path="url(#d)" transform="translate(0 90.867)"><path data-name="Rectangle 10" fill="#c9e9fc" d="M0 0h24.596v27.758H0z"/></g></g><g data-name="Group 364"><g data-name="Group 363" clip-path="url(#e)" transform="translate(29.61 91.253)"><path data-name="Rectangle 11" fill="#c9e9fc" d="M0 0h18.274v26.986H0z"/></g></g><g data-name="Group 366"><g data-name="Group 365" clip-path="url(#f)" transform="translate(52.897 91.253)"><path data-name="Rectangle 12" fill="#c9e9fc" d="M0 0h6.091v26.986H0z"/></g></g><g data-name="Group 368"><g data-name="Group 367" clip-path="url(#g)" transform="translate(65.889 91.253)"><path data-name="Rectangle 14" fill="#c9e9fc" d="M0 0h27.833v26.986H0z"/></g></g><g data-name="Group 370"><g data-name="Group 369" clip-path="url(#h)" transform="translate(100.627 91.254)"><path data-name="Rectangle 15" fill="#c9e9fc" d="M0 0h20.355v26.986H0z"/></g></g><g data-name="Group 372"><g data-name="Group 371" clip-path="url(#i)" transform="translate(120.907 91.137)"><path data-name="Rectangle 16" fill="#c9e9fc" d="M0 0h28.721v27.102H0z"/></g></g><g data-name="Group 374"><g data-name="Group 373" clip-path="url(#j)" transform="translate(151.133 90.867)"><path data-name="Rectangle 17" fill="#c9e9fc" d="M0 0h24.597v27.758H0z"/></g></g><g data-name="Group 376"><g data-name="Group 375" clip-path="url(#k)" transform="translate(178.623 91.253)"><path data-name="Rectangle 18" fill="#c9e9fc" d="M0 0h21.628v26.986H0z"/></g></g><text data-name="ΕΘΝΙΚΟ ΔΙΚΤΥΟ ΓΙΑ ΤΗΝ ΚΛΙΜΑΤΙΚΗ ΑΛΛΑΓΗ" transform="translate(1.696 130.4)" fill="#c9e9fc" font-size="8" font-family="Helvetica" letter-spacing=".12em"><tspan x="0" y="0">ΕΘΝΙΚΟ ΔΙΚΤΥΟ ΓΙΑ ΤΗΝ ΚΛΙΜΑΤΙΚΗ ΑΛΛΑΓΗ</tspan></text></g></g></svg>